<svg width="95" height="62" viewBox="0 0 95 62" fill="none" xmlns="http://www.w3.org/2000/svg">
<path d="M0.2686 43.5154C0.2686 39.3335 1.5781 35.5739 4.1971 32.3213C6.81611 29.0687 10.1532 26.9566 14.2507 26.0273C15.349 21.0849 17.8413 16.9875 21.7698 13.8616C25.6983 10.6934 30.2182 9.13047 35.3717 9.13047C40.3562 9.13047 44.8339 10.6512 48.7201 13.7348C52.6487 16.8185 55.1832 20.747 56.3237 25.5626H57.4642C62.4488 25.5626 66.673 27.2945 70.1791 30.8006C73.6852 34.3067 75.4593 38.5309 75.4593 43.4732C75.4593 48.4578 73.6852 52.682 70.1791 56.188C66.673 59.6941 62.4488 61.4683 57.4642 61.4683H18.3059C15.8559 61.4683 13.5326 61.0036 11.336 60.0321C9.13942 59.0605 7.15404 57.8777 5.54885 56.2725C3.94365 54.6673 2.67639 52.7242 1.70483 50.5276C0.733262 48.331 0.2686 45.9232 0.2686 43.5154ZM6.39369 43.5154C6.39369 46.7258 7.57646 49.5138 9.85753 51.7949C12.1386 54.0759 14.9688 55.2587 18.2637 55.2587H57.4642C60.7169 55.2587 63.5471 54.1182 65.8704 51.7949C68.1937 49.4716 69.3765 46.7258 69.3765 43.5154C69.3765 40.3051 68.2359 37.5171 65.8704 35.236C63.5471 32.9549 60.7591 31.7722 57.4642 31.7722H51.5926C51.1702 31.7722 50.959 31.561 50.959 31.1385L50.6633 29.0687C50.2409 25.0979 48.5512 21.7608 45.6365 19.1418C42.7218 16.5228 39.2579 15.2133 35.2872 15.2133C31.3165 15.2133 27.8526 16.5228 24.8957 19.1841C21.9387 21.8031 20.2913 25.1402 19.9111 29.0687L19.6154 30.8428C19.6154 31.2653 19.4042 31.4765 18.9396 31.4765L17.0387 31.7722C13.9972 32.0256 11.4627 33.2929 9.39287 35.5317C7.44974 37.7705 6.39369 40.4318 6.39369 43.5154ZM43.7778 6.68043C43.3554 7.06061 43.4399 7.35631 44.0735 7.56752C45.8899 8.37011 47.4106 9.13047 48.6357 9.89083C49.1003 10.0176 49.4383 9.97531 49.565 9.7641C52.1418 7.3563 55.0987 6.13129 58.5203 6.13129C61.9419 6.13129 64.8566 7.27182 67.3911 9.55289C69.8834 11.834 71.2774 14.6642 71.5731 18.0013L71.9532 20.7048H77.9516C80.6973 20.7048 83.0629 21.6763 85.0483 23.6617C87.0336 25.6471 88.0052 27.9704 88.0052 30.6739C88.0052 33.2084 87.1181 35.405 85.3862 37.3059C83.6543 39.2068 81.4999 40.2628 78.9232 40.5585C78.5007 40.5585 78.2895 40.7697 78.2895 41.2344V46.0077C78.2895 46.4724 78.5007 46.6836 78.9232 46.6836C83.1896 46.4301 86.7802 44.7405 89.6949 41.6568C92.6096 38.5731 94.088 34.8981 94.088 30.6739C94.088 26.1962 92.5251 22.3944 89.3569 19.2685C86.1888 16.1004 82.387 14.5374 77.9516 14.5374H77.318C76.2197 10.3132 73.8964 6.8494 70.348 4.10367C66.842 1.35795 62.8712 0.00620196 58.5203 0.00620196C52.6064 -0.03604 47.6641 2.20278 43.7778 6.68043Z" fill="white"/>
</svg>
