<svg width="268" height="117" viewBox="0 0 268 117" fill="none" xmlns="http://www.w3.org/2000/svg">
<path d="M223 91.952C223 91.5373 223.153 91.2115 223.458 90.9448C223.717 90.6782 224.068 90.5597 224.495 90.5597H228.02C228.432 90.5597 228.767 90.693 229.042 90.9597C229.301 91.2263 229.439 91.5521 229.439 91.952C229.439 92.3668 229.301 92.7223 229.027 93.0037C228.752 93.2851 228.416 93.4332 228.02 93.4332H224.511C224.099 93.4332 223.748 93.2851 223.458 92.9889C223.153 92.6926 223 92.352 223 91.952ZM228.02 80.3099C228.02 79.8951 228.142 79.5545 228.401 79.3027C228.706 79.0064 229.057 78.8583 229.469 78.8583C229.912 78.8583 230.247 79.0064 230.507 79.3027L232.979 81.717C233.68 82.3687 233.68 83.0353 232.979 83.7166C232.689 83.998 232.368 84.1314 231.987 84.1314C231.651 84.1314 231.315 83.998 230.949 83.7166L228.416 81.3171C228.157 81.0505 228.02 80.7098 228.02 80.3099ZM231.026 99.9801C231.026 99.595 231.178 99.2543 231.483 98.9581C231.758 98.6915 232.109 98.5582 232.521 98.5582H237.434C237.602 98.5582 237.739 98.5878 237.861 98.6767L241.447 101.965L245.093 98.6618C245.2 98.5878 245.353 98.5434 245.536 98.5434H250.571C250.983 98.5434 251.334 98.6767 251.624 98.9581C251.913 99.2395 252.066 99.5802 252.066 99.9653C252.066 100.365 251.913 100.706 251.624 100.987C251.334 101.269 250.983 101.417 250.571 101.417H246.482L241.691 105.623C241.508 105.757 241.34 105.757 241.187 105.623L236.488 101.417H232.521C232.109 101.417 231.758 101.269 231.468 100.987C231.178 100.721 231.026 100.38 231.026 99.9801ZM232.46 91.952C232.46 93.4184 232.75 94.7219 233.345 95.8328C233.436 95.9957 233.574 96.0698 233.757 96.0698H236.61C236.732 96.0698 236.808 96.0401 236.839 95.9661C236.869 95.892 236.824 95.8031 236.732 95.6995C235.832 94.6034 235.374 93.3444 235.374 91.952C235.374 90.3227 235.969 88.9304 237.174 87.7899C238.38 86.6494 239.829 86.0717 241.523 86.0717C243.201 86.0717 244.635 86.6494 245.841 87.7899C247.031 88.9452 247.641 90.3227 247.641 91.9372C247.641 93.3296 247.184 94.5886 246.283 95.6847C246.176 95.7883 246.146 95.8772 246.176 95.9513C246.207 96.0253 246.283 96.0549 246.405 96.0549H249.274C249.472 96.0549 249.594 95.9809 249.64 95.818C250.266 94.6626 250.586 93.3592 250.586 91.9372C250.586 90.7671 250.342 89.6266 249.869 88.5453C249.396 87.464 248.74 86.5161 247.931 85.731C247.122 84.946 246.161 84.3239 245.047 83.8499C243.934 83.3759 242.759 83.1538 241.538 83.1538C240.318 83.1538 239.143 83.3908 238.029 83.8499C236.915 84.3239 235.954 84.946 235.145 85.731C234.336 86.5161 233.696 87.4492 233.207 88.5453C232.719 89.6414 232.46 90.7819 232.46 91.952ZM240.028 78.9027V75.4516C240.028 75.0516 240.18 74.711 240.47 74.4295C240.76 74.1481 241.111 74 241.523 74C241.935 74 242.286 74.1481 242.576 74.4295C242.866 74.711 243.018 75.0516 243.018 75.4516V78.8879C243.018 79.2879 242.866 79.6285 242.576 79.91C242.286 80.1914 241.935 80.3395 241.523 80.3395C241.111 80.3395 240.76 80.1914 240.47 79.91C240.165 79.6285 240.028 79.3027 240.028 78.9027ZM249.594 82.7242C249.594 82.3095 249.732 81.9688 249.991 81.7318L252.478 79.3175C252.722 79.0212 253.073 78.8731 253.515 78.8731C253.927 78.8731 254.278 79.0212 254.553 79.3027C254.828 79.5841 254.965 79.9248 254.965 80.3247C254.965 80.7394 254.843 81.0801 254.584 81.3319L252.051 83.7462C251.7 84.0277 251.349 84.161 250.998 84.161C250.601 84.161 250.266 84.0277 249.991 83.7462C249.732 83.4648 249.594 83.1241 249.594 82.7242ZM253.546 91.952C253.546 91.5521 253.683 91.2263 253.943 90.9597C254.202 90.693 254.553 90.5597 254.965 90.5597H258.505C258.917 90.5597 259.268 90.693 259.558 90.9597C259.847 91.2263 260 91.5521 260 91.952C260 92.352 259.847 92.6926 259.558 92.9889C259.268 93.2851 258.917 93.4332 258.505 93.4332H254.965C254.568 93.4332 254.233 93.2851 253.958 93.0037C253.683 92.7223 253.546 92.3668 253.546 91.952Z" fill="#FE8228"/>
<path d="M240.48 68.2522L238.382 65.0537C238.136 64.6774 237.596 64.5381 237.188 64.8055C236.812 65.0522 236.672 65.592 236.94 65.9997L239.038 69.1982C239.284 69.5745 239.824 69.7138 240.232 69.4464C240.639 69.1791 240.727 68.6285 240.48 68.2522Z" fill="#FFC100"/>
<path d="M235.771 61.0713L233.673 57.8728C233.426 57.4965 232.886 57.3572 232.479 57.6246C232.102 57.8713 231.963 58.4111 232.23 58.8188L234.328 62.0173C234.575 62.3936 235.115 62.5329 235.522 62.2655C235.909 61.9668 236.017 61.4476 235.771 61.0713Z" fill="#FFC100"/>
<path d="M231.061 53.8903L228.963 50.6918C228.717 50.3155 228.177 50.1762 227.769 50.4436C227.393 50.6904 227.254 51.2302 227.521 51.6378L229.619 54.8363C229.865 55.2126 230.405 55.3519 230.813 55.0845C231.2 54.7858 231.308 54.2666 231.061 53.8903Z" fill="#FFC100"/>
<path d="M226.685 47.2474L223.74 44.8061C223.394 44.5188 222.837 44.5442 222.526 44.9195C222.239 45.2659 222.264 45.8228 222.639 46.134L225.584 48.5753C225.93 48.8626 226.487 48.8372 226.798 48.4619C227.11 48.0866 227.031 47.5346 226.685 47.2474Z" fill="#FFC100"/>
<path d="M220.074 41.7664L217.13 39.325C216.783 39.0378 216.226 39.0632 215.915 39.4385C215.628 39.7849 215.653 40.3418 216.029 40.653L218.973 43.0943C219.32 43.3815 219.876 43.3561 220.188 42.9809C220.47 42.5816 220.421 42.0536 220.074 41.7664Z" fill="#FFC100"/>
<path d="M213.463 36.2853L210.519 33.844C210.172 33.5567 209.615 33.5821 209.304 33.9574C209.017 34.3038 209.042 34.8607 209.418 35.1719L212.362 37.6132C212.709 37.9005 213.266 37.8751 213.577 37.4998C213.859 37.1005 213.81 36.5725 213.463 36.2853Z" fill="#FFC100"/>
<path d="M206.084 31.3221L202.631 29.6767C202.225 29.4832 201.691 29.6443 201.481 30.0843C201.288 30.4906 201.449 31.0243 201.889 31.234L205.342 32.8793C205.748 33.0729 206.282 32.9118 206.491 32.4717C206.701 32.0316 206.49 31.5157 206.084 31.3221Z" fill="#FFC100"/>
<path d="M198.331 27.6281L194.878 25.9828C194.472 25.7892 193.939 25.9503 193.729 26.3904C193.535 26.7966 193.696 27.3303 194.136 27.54L197.589 29.1854C197.996 29.3789 198.529 29.2178 198.739 28.7778C198.915 28.3215 198.738 27.8217 198.331 27.6281Z" fill="#FFC100"/>
<path d="M190.579 23.9342L187.126 22.2888C186.72 22.0952 186.186 22.2563 185.976 22.6964C185.783 23.1026 185.944 23.6363 186.384 23.846L189.837 25.4914C190.243 25.685 190.777 25.5239 190.987 25.0838C191.163 24.6276 190.985 24.1277 190.579 23.9342Z" fill="#FFC100"/>
<path d="M181.791 20.2655L178.08 19.3407C177.643 19.2319 177.152 19.496 177.034 19.9691C176.925 20.4057 177.189 20.8966 177.662 21.0145L181.374 21.9393C181.811 22.0481 182.302 21.784 182.419 21.3109C182.537 20.8379 182.228 20.3743 181.791 20.2655Z" fill="#FFC100"/>
<path d="M173.458 18.1892L169.747 17.2644C169.31 17.1556 168.819 17.4198 168.701 17.8928C168.593 18.3295 168.857 18.8204 169.33 18.9383L173.041 19.8631C173.478 19.9719 173.969 19.7077 174.087 19.2347C174.168 18.7526 173.895 18.298 173.458 18.1892Z" fill="#FFC100"/>
<path d="M165.126 16.1129L161.414 15.1881C160.977 15.0793 160.487 15.3435 160.369 15.8165C160.26 16.2532 160.524 16.7441 160.997 16.862L164.709 17.7868C165.145 17.8956 165.636 17.6314 165.754 17.1584C165.835 16.6763 165.562 16.2217 165.126 16.1129Z" fill="#FFC100"/>
<path d="M154.928 14.4127L151.11 14.176C150.661 14.1482 150.226 14.497 150.196 14.9835C150.168 15.4327 150.517 15.8676 151.004 15.8977L154.821 16.1344C155.27 16.1622 155.705 15.8134 155.735 15.3269C155.766 14.8403 155.377 14.4405 154.928 14.4127Z" fill="#FFC100"/>
<path d="M146.357 13.8814L142.539 13.6448C142.09 13.6169 141.655 13.9657 141.625 14.4523C141.597 14.9014 141.946 15.3363 142.433 15.3665L146.25 15.6031C146.699 15.6309 147.134 15.2822 147.164 14.7956C147.157 14.3067 146.806 13.9092 146.357 13.8814Z" fill="#FFC100"/>
<path d="M137.786 13.3502L133.968 13.1135C133.519 13.0857 133.084 13.4345 133.054 13.921C133.026 14.3702 133.375 14.8051 133.862 14.8352L137.679 15.0719C138.128 15.0997 138.563 14.7509 138.593 14.2644C138.586 13.7755 138.235 13.378 137.786 13.3502Z" fill="#FFC100"/>
<path d="M101.212 16.2088L97.501 17.1348C97.0644 17.2437 96.755 17.7074 96.873 18.1804C96.9819 18.617 97.4456 18.9265 97.9186 18.8085L101.63 17.8825C102.066 17.7736 102.376 17.3099 102.258 16.8369C102.14 16.3639 101.649 16.0999 101.212 16.2088Z" fill="#FFC100"/>
<path d="M92.8802 18.2876L89.1689 19.2136C88.7323 19.3225 88.4229 19.7862 88.5409 20.2592C88.6498 20.6958 89.1135 21.0053 89.5865 20.8873L93.2978 19.9613C93.7344 19.8524 94.0438 19.3887 93.9258 18.9157C93.7714 18.4518 93.3168 18.1787 92.8802 18.2876Z" fill="#FFC100"/>
<path d="M84.5481 20.3664L80.8368 21.2924C80.4002 21.4013 80.0908 21.865 80.2088 22.338C80.3177 22.7746 80.7814 23.0841 81.2544 22.9661L84.9657 22.0401C85.4023 21.9312 85.7117 21.4675 85.5937 20.9945C85.4393 20.5306 84.9847 20.2575 84.5481 20.3664Z" fill="#FFC100"/>
<path d="M34.9883 52.7456L33.0658 56.0524C32.8397 56.4414 32.9565 56.9865 33.378 57.2315C33.767 57.4577 34.3121 57.3408 34.5571 56.9194L36.4796 53.6126C36.7058 53.2236 36.5889 52.6785 36.1674 52.4335C35.746 52.1885 35.2145 52.3566 34.9883 52.7456Z" fill="#FFC100"/>
<path d="M30.6721 60.1696L28.7497 63.4764C28.5235 63.8654 28.6404 64.4105 29.0618 64.6555C29.4508 64.8817 29.9959 64.7649 30.2409 64.3434L32.1634 61.0366C32.3896 60.6476 32.2727 60.1025 31.8513 59.8575C31.411 59.6449 30.8983 59.7806 30.6721 60.1696Z" fill="#FFC100"/>
<path d="M26.356 67.5936L24.4335 70.9004C24.2073 71.2894 24.3242 71.8345 24.7456 72.0796C25.1347 72.3057 25.6798 72.1889 25.9248 71.7674L27.8473 68.4607C28.0734 68.0716 27.9566 67.5265 27.5351 67.2815C27.0948 67.0689 26.5822 67.2046 26.356 67.5936Z" fill="#FFC100"/>
<path d="M128.813 13.0579L124.997 13.3149C124.548 13.3451 124.161 13.747 124.194 14.2334C124.224 14.6824 124.626 15.0688 125.113 15.036L128.929 14.779C129.378 14.7488 129.764 14.3469 129.732 13.8605C129.699 13.3741 129.262 13.0277 128.813 13.0579Z" fill="#FFC100"/>
<path d="M120.245 13.6349L116.429 13.8919C115.98 13.9221 115.593 14.324 115.626 14.8104C115.656 15.2594 116.058 15.6457 116.545 15.613L120.361 15.356C120.81 15.3258 121.196 14.9239 121.163 14.4375C121.093 13.9536 120.694 13.6047 120.245 13.6349Z" fill="#FFC100"/>
<path d="M111.677 14.2119L107.861 14.4688C107.412 14.4991 107.025 14.9009 107.058 15.3873C107.088 15.8363 107.49 16.2227 107.976 16.1899L111.793 15.933C112.242 15.9027 112.628 15.5009 112.595 15.0145C112.525 14.5306 112.126 14.1816 111.677 14.2119Z" fill="#FFC100"/>
<path d="M53.6462 35.5592L50.7339 38.0388C50.3912 38.3305 50.3203 38.8835 50.6363 39.2547C50.928 39.5973 51.481 39.6683 51.8521 39.3523L54.7645 36.8726C55.1071 36.5809 55.1781 36.0279 54.8621 35.6567C54.5461 35.2856 53.9889 35.2674 53.6462 35.5592Z" fill="#FFC100"/>
<path d="M47.1077 41.1262L44.1953 43.6058C43.8527 43.8976 43.7817 44.4505 44.0977 44.8217C44.3894 45.1643 44.9424 45.2353 45.3136 44.9193L48.2259 42.4396C48.5686 42.1479 48.6395 41.5949 48.3235 41.2238C47.9789 40.8769 47.4503 40.8345 47.1077 41.1262Z" fill="#FFC100"/>
<path d="M40.5691 46.6933L37.6567 49.1729C37.3141 49.4646 37.2431 50.0176 37.5591 50.3888C37.8509 50.7314 38.4038 50.8024 38.775 50.4863L41.6874 48.0067C42.03 47.715 42.101 47.162 41.7849 46.7908C41.4404 46.444 40.9117 46.4015 40.5691 46.6933Z" fill="#FFC100"/>
<path d="M76.391 23.3983L72.9984 25.1649C72.5993 25.3728 72.4066 25.8959 72.6318 26.3283C72.8396 26.7274 73.3627 26.9201 73.7951 26.6949L77.1877 24.9283C77.5869 24.7205 77.7795 24.1974 77.5544 23.765C77.3292 23.3326 76.7902 23.1905 76.391 23.3983Z" fill="#FFC100"/>
<path d="M68.7743 27.3645L65.3817 29.1311C64.9826 29.339 64.7899 29.8621 65.0151 30.2945C65.2229 30.6936 65.746 30.8863 66.1784 30.6611L69.571 28.8945C69.9702 28.6867 70.1628 28.1636 69.9377 27.7312C69.6793 27.3161 69.1735 27.1567 68.7743 27.3645Z" fill="#FFC100"/>
<path d="M61.1576 31.3307L57.765 33.0973C57.3659 33.3052 57.1732 33.8283 57.3984 34.2607C57.6062 34.6598 58.1293 34.8525 58.5617 34.6273L61.9543 32.8607C62.3534 32.6529 62.5461 32.1298 62.3209 31.6974C62.0625 31.2823 61.5567 31.1229 61.1576 31.3307Z" fill="#FFC100"/>
<path d="M5 94.6998C5 94.2774 5.15102 93.8887 5.45306 93.5339C5.78531 93.2128 6.14776 93.0438 6.5102 93.0438H10.029C10.4367 93.0438 10.769 93.2128 11.0408 93.5339C11.3127 93.8549 11.4486 94.2605 11.4486 94.6998C11.4486 95.1899 11.3127 95.5954 11.0408 95.9165C10.769 96.2375 10.4216 96.4065 10.029 96.4065H6.5102C6.10245 96.4065 5.7551 96.2375 5.45306 95.8996C5.15102 95.5447 5 95.1392 5 94.6998ZM10.029 81.2154C10.029 80.7591 10.1649 80.3705 10.4216 80.0663C10.769 79.7284 11.1163 79.5594 11.4939 79.5594C11.8865 79.5594 12.2339 79.7284 12.5208 80.0494L14.9976 82.8376C15.2845 83.2093 15.4204 83.598 15.4204 84.0035C15.4204 84.4766 15.2845 84.8822 15.0127 85.1863C14.7408 85.4905 14.4086 85.6595 14.0159 85.6595C13.6535 85.6595 13.291 85.4905 12.9588 85.1695L10.4216 82.4489C10.1649 82.094 10.029 81.6716 10.029 81.2154ZM13.0494 104.027C13.0494 103.554 13.2004 103.166 13.4873 102.878C13.7592 102.591 14.0914 102.439 14.5143 102.439H18.4861L23.1829 97.5049C23.3339 97.3697 23.5 97.3697 23.6963 97.5049L28.4686 102.439H32.6518C33.0596 102.439 33.4069 102.591 33.6939 102.912C33.9808 103.216 34.1318 103.605 34.1318 104.044C34.1318 104.501 33.9808 104.889 33.6939 105.21C33.4069 105.531 33.0596 105.7 32.6518 105.7H27.5473C27.3963 105.7 27.2453 105.666 27.1094 105.582L23.4698 101.746L19.8604 105.582C19.7396 105.666 19.6037 105.7 19.4376 105.7H14.5143C14.1065 105.7 13.7592 105.531 13.4722 105.21C13.1853 104.872 13.0494 104.484 13.0494 104.027ZM14.4388 94.6998C14.4388 96.3389 14.7559 97.8259 15.3751 99.1608C15.4053 99.3636 15.5412 99.465 15.7527 99.465H18.5918C18.6976 99.465 18.7731 99.4143 18.8184 99.3298C18.8637 99.2284 18.8486 99.127 18.7882 99.0088C17.8216 97.7076 17.3384 96.2713 17.3384 94.6998C17.3384 92.8073 17.9424 91.1851 19.1506 89.8501C20.3588 88.5152 21.8086 87.8562 23.5151 87.8562C25.2065 87.8562 26.6412 88.5152 27.8343 89.8501C29.0273 91.1851 29.6314 92.7904 29.6314 94.6998C29.6314 96.2882 29.1482 97.7245 28.1967 99.0088C28.1363 99.127 28.1212 99.2284 28.1514 99.3298C28.1816 99.4312 28.2571 99.465 28.378 99.465H31.2473C31.4437 99.465 31.5645 99.3636 31.5947 99.1608C32.2592 97.8597 32.5612 96.3727 32.5612 94.6998C32.5612 93.3311 32.3196 92.0131 31.8363 90.7795C31.3531 89.5291 30.7037 88.4645 29.9033 87.552C29.1029 86.6565 28.1363 85.9299 27.0188 85.3891C25.9012 84.8484 24.7384 84.5949 23.5151 84.5949C22.2918 84.5949 21.1139 84.8653 19.9963 85.3891C18.8788 85.9299 17.9122 86.6396 17.0967 87.552C16.2812 88.4476 15.6318 89.5291 15.1486 90.7795C14.6804 92.0131 14.4388 93.3142 14.4388 94.6998ZM22.0351 79.5594V75.6729C22.0351 75.1828 22.171 74.7942 22.458 74.4731C22.7449 74.1521 23.1073 74 23.5302 74C23.9531 74 24.3004 74.1521 24.5873 74.4731C24.8743 74.7942 25.0102 75.2166 25.0102 75.6898V79.5763C25.0102 80.0663 24.8743 80.455 24.5873 80.776C24.3155 81.0802 23.9531 81.2492 23.5302 81.2492C23.0922 81.2492 22.7449 81.0971 22.458 80.776C22.171 80.455 22.0351 80.0494 22.0351 79.5594ZM31.6249 84.0204C31.6249 83.598 31.7608 83.2093 32.0327 82.8545L34.4792 80.0663C34.7661 79.7453 35.1286 79.5763 35.5363 79.5763C35.9441 79.5763 36.3065 79.7453 36.5784 80.0663C36.8653 80.3874 37.0012 80.776 37.0012 81.2323C37.0012 81.7223 36.8653 82.1278 36.6086 82.4658L34.0714 85.1863C33.7543 85.5074 33.3918 85.6764 33.0143 85.6764C32.6065 85.6764 32.2743 85.5243 32.0176 85.2032C31.7608 84.8822 31.6249 84.4935 31.6249 84.0204ZM35.5665 94.6998C35.5665 94.2436 35.7024 93.8549 35.9743 93.5339C36.2461 93.2128 36.5784 93.0438 36.971 93.0438H40.52C40.9278 93.0438 41.2751 93.2128 41.562 93.5339C41.849 93.8549 42 94.2605 42 94.6998C42 95.173 41.849 95.5616 41.562 95.8996C41.2751 96.2375 40.9278 96.4065 40.52 96.4065H36.971C36.5633 96.4065 36.231 96.2375 35.9592 95.9165C35.7024 95.5785 35.5665 95.173 35.5665 94.6998Z" fill="#FFC100"/>
</svg>
