<svg width="39" height="21" viewBox="0 0 39 21" fill="none" xmlns="http://www.w3.org/2000/svg">
<path d="M0 13.2094C0 13.6047 0.147479 13.9506 0.458824 14.2306C0.721009 14.5435 1.06513 14.6918 1.49118 14.6918H25.563C26.0382 14.6918 26.4315 14.8565 26.7592 15.1859C27.087 15.5153 27.2508 15.9271 27.2508 16.4047C27.2508 16.8824 27.087 17.2776 26.7592 17.5906C26.4315 17.9035 26.0382 18.0682 25.5466 18.0682C25.0714 18.0682 24.6618 17.9035 24.3504 17.5906C24.0882 17.2941 23.7605 17.1624 23.3672 17.1624C22.9576 17.1624 22.6134 17.3106 22.3185 17.5906C22.0235 17.8706 21.8761 18.2165 21.8761 18.5953C21.8761 19.0071 22.0235 19.3529 22.3349 19.6329C23.2525 20.5388 24.334 21 25.5466 21C26.8248 21 27.9227 20.5553 28.8403 19.6659C29.758 18.7765 30.2004 17.7059 30.2004 16.4212C30.2004 15.1365 29.7416 14.0494 28.824 13.1271C27.9063 12.2047 26.8084 11.7435 25.5466 11.7435H1.49118C1.08151 11.7435 0.737395 11.8918 0.442437 12.1718C0.147479 12.4518 0 12.7976 0 13.2094ZM0 7.80706C0 8.18588 0.147479 8.51529 0.458824 8.81176C0.737395 9.10824 1.08151 9.24 1.49118 9.24H34.3298C35.608 9.24 36.7059 8.79529 37.6235 7.88941C38.5412 7 39 5.91294 39 4.64471C39 3.37647 38.5412 2.27294 37.6235 1.36706C36.7059 0.461176 35.608 0 34.3298 0C33.0681 0 32.0029 0.444706 31.1345 1.31765C30.8395 1.58118 30.692 1.94353 30.692 2.42118C30.692 2.84941 30.8395 3.19529 31.1181 3.45882C31.3966 3.72235 31.7408 3.85412 32.1504 3.85412C32.5437 3.85412 32.8878 3.72235 33.1828 3.45882C33.4941 3.11294 33.871 2.94824 34.3298 2.94824C34.805 2.94824 35.1983 3.11294 35.5261 3.44235C35.8538 3.77176 36.0176 4.16706 36.0176 4.64471C36.0176 5.12235 35.8538 5.51765 35.5261 5.83059C35.1983 6.14353 34.805 6.30823 34.3298 6.30823H1.49118C1.08151 6.30823 0.737395 6.45647 0.442437 6.73647C0.147479 7.04941 0 7.39529 0 7.80706Z" fill="white"/>
</svg>
